<?xml version="1.0" encoding="UTF-8"?>
<svg id="Layer_1" xmlns="http://www.w3.org/2000/svg" version="1.1" viewBox="0 0 301.7 109.6">
  <!-- Generator: Adobe Illustrator 30.4.0, SVG Export Plug-In . SVG Version: 2.1.4 Build 226)  -->
  <defs>
    <style>
      .st0 {
        fill: #dbccaf;
      }
    </style>
  </defs>
  <path class="st0" d="M226.2,89l-11.7.8-68.3-.4-91.5-.6c-4.9,0-8.2-2.3-10-7.1-2.8-7.1.7-14.8,6-19.5,6.1-5.4,14.5-5.9,22.3-1.8,2.3-4.9,4.9-9.2,9.3-11.9,8.7-5.5,18.9-3.5,25.5,5,.9-10.2,2.7-18.6,9.1-25.4,10.4-11,27.8-11.6,37.3.4,4,5.1,4.7,11.5,6.1,17.7,6.6-.6,10.9,2.9,14.3,8.2,7-5,15.4-6,22.1-1.4,5.4,3.7,8,10.2,8.4,16.8,6.5-1.5,13.8-2.1,19.1,1.7-.3,1.2-1,2.7-.8,3.4.4,1.2,2.9.4,3.9,0,2.9,1.7,4.1,7.1,3.5,10.7s-2.3,3-4.3,3.2Z"/>
</svg>