<?xml version="1.0" encoding="UTF-8"?>
<svg id="Layer_1" xmlns="http://www.w3.org/2000/svg" version="1.1" viewBox="0 0 301.7 109.6">
  <!-- Generator: Adobe Illustrator 30.4.0, SVG Export Plug-In . SVG Version: 2.1.4 Build 226)  -->
  <defs>
    <style>
      .st0 {
        fill: #dbccaf;
      }
    </style>
  </defs>
  <path class="st0" d="M287.5,100.5l-20.8.5h-86.6c0-.1-159.3-.9-159.3-.9-5.1,0-8.5-5.3-8.8-10-.6-9.1,5.5-16.3,11.9-20.5,8.2-5.3,16.7-3.3,24.8-.8,3.9-5.5,9.6-11.1,16.2-11.5,7.4-.5,13.5,2.1,19.6,8.2,2-12.5,7.2-24,18.7-29.2,12.5-5.6,26.7-1,35.5,10,5.5-19.9,21.2-36.1,41.1-33.3,12.3,1.8,20.5,9.6,23.8,20.9,1.9,6.2,3.8,11.8,1,19,9.5-2.5,17.8-2.5,25.2,2.7,6,4.3,8.8,11.6,10,19.2,5.7-2.4,13.4-2.7,16.5,3.1s1,4.5,2.7,5.8c4.5,3.3,12.2-.6,14.6,3.5s2.5,2.9,4.3,3.2,2.9-1.2,4.6-2.9,6.7.5,7,2.8c.5,3.5-.8,6.1-2.1,10.2Z"/>
</svg>