<?xml version="1.0" encoding="UTF-8"?>
<svg id="Layer_1" xmlns="http://www.w3.org/2000/svg" version="1.1" viewBox="0 0 238 338.8">
  <!-- Generator: Adobe Illustrator 30.4.0, SVG Export Plug-In . SVG Version: 2.1.4 Build 226)  -->
  <defs>
    <style>
      .st0 {
        fill: #543229;
      }
    </style>
  </defs>
  <path class="st0" d="M107.1,287.3l-.5,5c-.5,4.8-.4,8.8-.4,13.3s-1,8.7.8,13.6l-9.5.8c-3.2.3-6.1.9-9-.8-.2-1.2-1.3-2.7-1-4l6.3-31.1-.3-14.5c-.1-4.7-2.8-8.6-4.7-12.7s-2.1-6.9-4.8-7.6-3.6,3.4-4.3,5c-2.3,5.3-2.7,10-1.5,15.5s.1,5.7,0,8.4l-2.8,8.8.7,13.4.6,14.3c0,1.3.5,4.9-1.8,5l-17.7.3c-.4-1.5-1.5-3.1-1.3-4.6l4.1-27.4c.8-5.1-3-10.2-.5-19.1s2.2-9.1,1.6-13.9c-.8-7.5.2-14.5,1.2-22-5.1-.3-11.1.8-14.3-2.7s-.9-9.8-.9-14.5c-8.2,1-15.4-.2-18.2-7.6s8.5-4.9,10.5-10.9l11.2-32.8c2.8-8.1-3.8-5.4,9.9-21.2s10.9-4.8,15.2-8.7,2.6-9.2,9.3-8.1c-4.8-7.2-2.3-17.3-3.5-18.6s-4.3.3-6-1.1-1.2-1.7-1.3-2.9l-.9-13.7,9.5-1.6c1.3-5,2.1-10.4,5.9-13.8l7.6-6.8c-1.3-1.9-1.4-3.8-1.4-5.5h7.1c-.4-1.2-.8-2.4-.4-2.8.6-.7,2.2-.8,3.8-.8-.4-3.5-3.4-5.9-4.4-8.9l-1.7-5.4c-2.7,2.9-12.8.9-14.5-.9s-2.3-5.2-1.1-6.8c4.1-5.2,11-5.6,17.1-4.3,4.5-6.3,3.1-15,9.7-13.5l6.9,1.5c1.8.4,3.5-2,5.6-1.2s3.6,1.9,4,4.3l1,7.3c.3,2.4,2.2,4.3,1.3,7.1,5.2,2.2,10.5,1.4,15.9-.7,1.2,1.9,2.6,5.2,1.7,7.2s-5.4,3.4-8.1,3.4h-9.6s1.7,6.5,1.7,6.5c-2,1.9-4.9,5.2-4.3,8s1.2,4.8,2.6,6l8.1,6.9c10.5,13.9,3.7,24.2,6.4,31.9,1,2.9-1.3,7.2-2.8,9.6l-5.8,8.9c2,2.9,3.5,5.8,3.6,9.6,3.5.4,7.6-.7,10.3,1.3s2.7,8.8,4.4,12.1c3.5,4.8,9.1,7.7,11.6,13.5l4.7,10.7c1.4,3.1-.1,4.4-.4,6.3l3.3,15.5c1,4.5.7,9.8,3.2,17.1s6.8,5.7,10.8,6.6,4.5,5,3.2,7.2c-3.6,6.3-10.2,7-16.7,7.1s-7.4,2.1-10-1.3l-3.1-6.2c-.4,2.2.9,3.4-1.5,5.5-.6,1.3.6,3.1.3,4.8-3.2,2.2-7.1,2-11.2.5-2.1,4.6,0,8.9,1.5,13.2l.5,10.4c1,2.5.9,3.9,1.3,6.7l1.5,10.2.2,13.9.6,8.8,2,15.2c.2,1.7,2.2,3.4.7,5.6h-18.3c-.2-1.3-1-2.3-2.1-3.2,1.2-10.2,3-20.6,2.5-31.1l-2.3-11c0-6-2.4-11.6-7-15.1.2-3.2-2.8-7.6-5.4-7.6-3.1-4.4-10.5-6.7-15.1-3.9-1.3,4.7-.3,10.9.5,15.4-.7,3.4-.3,6.1,1.7,8.7-.4,5.5-1.9,10.4-3.7,15.4Z"/>
</svg>