<?xml version="1.0" encoding="UTF-8"?>
<svg id="Layer_1" xmlns="http://www.w3.org/2000/svg" version="1.1" viewBox="0 0 238 338.8">
  <!-- Generator: Adobe Illustrator 30.4.0, SVG Export Plug-In . SVG Version: 2.1.4 Build 226)  -->
  <defs>
    <style>
      .st0 {
        fill: #523027;
      }
    </style>
  </defs>
  <path class="st0" d="M142.5,254.2c-6.1,2-11.4,1.4-17.2,1.8l-13.3.8c-1.4,0-2.5,3.6-2.4,5,.5,9.5-.7,18.1-1.6,27.5l1,8.9c.4,3.5,1.3,6.7-.6,10.2s1,3.2.8,4.2c-.5,2.3,1.3,4.2,1.6,5.9.9,4.2.3,8.3.2,12.8-4.5-.2-10.2,1.1-14-.4s-2-7.2-1.6-10.3c1.1-8.1,1.3-15.9.1-23.8l-1.5-10.2c-.8-5.2-2.6-11.4-4.8-15.9-1.5.1-1.3,2.1,0,2.8l-.8,21.9c-.2,5,0,10.3,1.8,14.8s2.2,7.4,1.3,11.5l-.5,9.5c-4.7.2-9.6.7-14.2-.2-1.9-1.9-2-6.4-1.1-8.8,2-5.3.4-31.2-2.1-40.1-2.4-8.8-6-17.7-7.1-26.8-3.8-2.1-5.7-5.7-7.4-9.4-3-6.5-4.7-12.6-2.8-19.9s-1-8-5.2-9c-1.9,8-7.5,11.6-7.1,16.4.6,7.8-5,13.1-12.3,13.5s-7.6-2.4-9.5-6.4-1-8.7-1.3-13.7c-.5-7.8-2.2-15.8-4.1-23.2s-4.5-7.6-2.7-12.9,2.4-6.9,1.5-9.3c-4.9-5.7-8.7-14.9-5.8-21.9l6.6,5.8,16.2-13.7c13.8-11.7,27.9-23,38.9-37.6,1.4-1.8,1.2-3.6,3.8-4.6s3-3,5.5-3.2c8.9-.7,21.6-9.6,18.8-17.9-5.3-15.4,4.2-24.8,3.2-27.8s-4.3-.8-5.8-1.7c-2.2-1.4.4-8.9-6.5-9.3-2.5-5.9.6-8.1-.3-11.3-5.1,1.2-10.1,1.5-15.2.8,0-1.8-.2-3-1.1-4.6,4.7-3,10-3.9,15.4-6,2.5-5.9,2.1-15.1,5-15.7,7.5-1.5,15.7-3.2,23.3-1.1s3.7,11.8,5.4,11.7c-.4,0-1.7,1.2-1.3,1.4,7.5,1.7,15,2.6,17.6,8.9s1.1,2.2.5,3.3-1.6,1.6-2.9,1.6h-10.9c-1.7,0-4.5,2.3-4.1,4.1,2.2,9.5,23,9.8,27.5,33l2.9,8.9c.7,2.3-1.3,5.4-1.3,8.1v15.6c0,4.5,1.3,8.4-2.3,12.1s-2.7,5.1-1.5,8c2.7,6.4,3.7,17.8-1.7,22.6,5.9-.7,11.2-7.4,14.6-6.3s2.5,1.4,3,2.9l1.7,5.4c3.7-.8,7.5-1.1,10.3.9.1,1.1,0,2.4.4,2.9s18.4,3.2,33.9,20.9c6.4,7.3,7.7,16.6,8.6,25.9l1.8,2.4c.4.6-.3,2.2-1.2,3.1,1,5.4,0,11.3-.4,17l-1,13.5c-.9-.9,0-2.1-.9-4.1-2.3,2.8-.7,6.2,1.1,8.9-.9,1.7-2,4.4.2,5-1.5,5.5,3.5,9.8,2,12.9-2.1,4.5-2,8.8-2.6,13.6s-1.5,5.3.3,8.5,2,4.2,1.6,6.5l-1.9,13.2c-.7,5.1-1.7,9.1-1.4,14.5s-.5,10.1-3.9,12.2-8,.3-11.6.8l-3-5.5,2.6-9.8c2-7.6,2.8-15.7,1.9-23.5-.6-5.1.9-10.1-1.8-15.2-4.7,14.4-5.4,28.6-6.1,42.9,0,.9-4.8,11.1-9.5,11l-10.4-.2c.8-1.7-1.1-3.2-1.4-4.1,0-4.5,3-8.3,3.9-12.7l5.1-25.8c.6-3.2-1.8-5.4-3.8-6.8l-6.8-4.9-12.3-11.7-10.7-10.1c-1-.9-3.8-1.1-5.4-.6ZM40.2,164.2c4.6-.7,8.3-.9,12.3-.3,9.8,1.6,22.3-.1,27.7-7.9l19-27.4,6.9-8.3c1.5-1.8,0-5.8-1-7l-17.5,8.5c-3.9,1.9-8.5.1-12.1-2.5-3.5,5.4-8.2,8.9-12.4,13l-7.2,7-5.3,4.6c-5.2,4.5-9.9,9.1-16.1,12.4l5.8,7.9ZM191.5,254.1c-1.1-2.5-11-13-13.6-8.9,4.3,10.5,11.1,20.3,20.7,25.7l-7.2-16.7Z"/>
</svg>