<?xml version="1.0" encoding="UTF-8"?>
<svg id="Layer_1" xmlns="http://www.w3.org/2000/svg" version="1.1" viewBox="0 0 479.2 338.8">
  <!-- Generator: Adobe Illustrator 30.4.0, SVG Export Plug-In . SVG Version: 2.1.4 Build 226)  -->
  <defs>
    <style>
      .st0 {
        fill: #543229;
      }
    </style>
  </defs>
  <path class="st0" d="M181.1,301.9c-2.5-2-5.6,0-8.1-.3-3.1-4.4-1.9-9-2.9-14.1s-3.3-8.8-6-11c-8.1-6.4-10.5-13.1-14.9-17.2s-9.4-14.6-6.2-22.2c-7.3,5-10.6,12.9-11.1,21.6l-1,19.7c-.3,5.2-.8,9-4.2,13.2-7.9,9.8-8.3,17.7-12.8,19.7s-3.1.2-3.9-1.1l-5.4-8.4c-1.5-2.3-2.1-5.3-2.9-8-1.2-4.2,4.1-7.8,8-7.6s4-1.7,3.6-3.6c-2.6-10.8,5.2-24.4,2.7-49.1s1-6.2,3.9-7.7c8.6-4.2,22.9-16.5,25.6-25.6s-2.5-12.1-4.5-17.6l-3.6-9.7c-4.9-13.1-6.3-26.7-3.5-40.7-8.6,3.4-14.1,11.6-16,20.4s-4.2,15.5-6.4,23.4c-3.8,13.5-13.6,26-27,29.9s-3.5-3.9-2.3-4.7c5.4-3.3,11-6.7,12.7-13.1-6.1,4.8-12.4,10.9-20.2,10.7l-12.4-.3c-17.6-.4-38.2-7.6-43.4-24.1,5.5,3.9,9.8,9.3,16.4,11.4s16.1,1.9,23.6-1.2c-9.1-.4-17.3-2.7-25.1-8.3s-4.1-4.8-5.8-8.5-6.2-10.1-4-15.3c5.3,6.6,10,12.8,18.5,13-3.7-4-6.8-7.4-5.6-12.4,6.8,5.9,14.4,10.7,23,9.6s17.9-7.4,23.8-14.7,15.9-19,25.3-27.7,20.3-13.1,32.8-11.4c5.4.7,9.3-1,13.7-4.3,17.8-13.3,41.1-15,61.8-6.7,24.4,9.7,49.1,12.7,71.2-2.6-6.1-.3-10-3.4-10-8,5.6-.8,10.1-2.3,13.9-6h-6.5c-5.9,0-10.5-3.5-11.4-9.3,9,.9,17,1.5,24.6-1.5-6.7-.3-12.8-2.7-17.4-7.3-.4-1.5-.1-4.3-1.5-5.7,10.2,3.7,20.1,4.6,29.4,0-5.2-1.1-12-5.1-12.6-6.4s-.6-3.9-1.5-5.7c5.2,1.6,10.9,4.7,16.5,2.9l23.7-7.6c-5.3-1.9-10.3-2.5-12.5-6.7s-.6-4.5-2-6.6c6.8,3,13.2,4,20.4,4.7,3.8.4,8,2.2,11.2-.6-5.6-.7-11.8-5.4-12.3-8.9,6.8,0,13.6.6,20.6,2.1s2.8-1.5,3.6-1.6c7.3-.9,14.3,1.5,21.3,3.9.4-2.2-1.2-2.6-1.9-4.2,8.1,1.5,15.1,5,22.2,10.2.5-4.5-.2-7.6,2.3-11.1l4.1,9.7c1.1,2.7,6.1,4.5,8.7,3.2l11.2-5.5c0,1.1,0,3,.4,3.8s1.2.6,2.4.9l-5,16,8,11.9,15.5,28.6c5.2,9.6,14.2,17.8,2.6,30.2-4.7,5-11.4,7.9-17.7,2.7-.5-3.7-2.7-7.1-6.5-8.3l-11.2-7.8-11.3-3.7c-12.5-4-12.1-9.2-14.1-9.5s-2.7.3-3.8,1.6c-9.8,10.7-18.1,22.4-24.3,35.6s-4.7,18-5.5,27.7l-.9,10.2c-.4,4.2-2.6,8.4-5,12l22.4,17.7c3.2,2.5,2.7,7.6,3.7,11.1s1.2,7.3-1.3,11c-5.6,8.5-11.7,16.4-16.1,25.8-1.7,3.5-1.2,8.8-4.6,11.4l-9.6,4.3-13.3,12.3c-2.4,2.2-3.8-3.5-4.1-5.3-1.1-5.1-3.6-10.4-1.9-15.5s2.2-4.8,3.9-5.6c2.7-1.3,5.3-1.2,8.9.7,7-10.5,14.6-20.6,20.4-32.3s-3.5-5.3-5.6-6.1c-9.5-4.1-17.9-7.8-28.1-9.4l-19.3,41.9c-3.4,7.4-1,18.7-17.5,24.5s-7.1,3.6-10.8,5.2c-6.7,3-12.7,6.2-19.1,10.1l-9.4,5.6c-6.6,4-15.5,5.7-23.2,5.3-3.1-.4-3-5.8-2.1-7.7l5.3-11.8c1.4-3.2,4.5-6.4,8.5-5s3.7,3.3,6.1,2.6c9.2-3,18.3-6.9,26.3-12.4,4.8-3.3,8.6-6.8,14.8-8.5,4.3-16.1,8.1-32,10.2-48.9-4.8-2.3-9.6-.3-14.4-.3h-32.7c-15.9,0-34.1-12.5-51.3-16-4.1,3.4-6.4,8.4-9.5,12.7l-16.2,22.7c-4.6,8.6-6.7,18.5-9.3,27.8-2.6,9.3.5,6.8,2.2,10,5.4,10.3,11.2,19.6,18.3,28.7l5.2,10.7,11.7,19.4c-2.8,2.1-5.3,1-8.4,1.3s-9.7,2-12.8-1.1-3-10.8-1.7-16.7l-.7.5Z"/>
</svg>